<svg width="1024" height="1024" viewBox="0 0 1024 1024" xmlns="http://www.w3.org/2000/svg">
  <!-- Astral app icon: spark glyph on OLED-black, matching the web PWA "any" icon. -->
  <rect width="1024" height="1024" rx="180" fill="#181818"/>
  <!-- Glyph viewBox is 0 0 64 64. Render at 600px (~58% of canvas) and center it:
       scale = 600/64 = 9.375, offset = (1024-600)/2 = 212. -->
  <g transform="translate(212,212) scale(9.375)">
    <path
      d="M28.3418 18.9446C28.2577 21.6057 29.2779 24.1831 31.1605 26.0658L32.2591 27.1643C34.74 29.6453 38.1049 31.0391 41.6135 31.0391H58.7747C59.8651 31.0391 60.749 31.923 60.749 33.0134C60.749 34.1523 59.788 35.055 58.6513 34.9839L41.5071 33.9101C37.7202 33.673 34.0139 35.0742 31.331 37.7574L30.409 38.6795C28.6243 40.4645 27.5865 42.8623 27.5068 45.3852L27.2601 53.1963C27.2283 54.201 26.4047 54.999 25.3995 54.999C24.3426 54.999 23.4977 54.12 23.5395 53.0639L23.8637 44.8787C23.9711 42.1652 22.9402 39.5301 21.0199 37.6098L19.0815 35.6713C17.3423 33.9321 14.9835 32.9551 12.5239 32.9551H5.19139C4.11919 32.9551 3.25 32.0859 3.25 31.0137C3.25 29.8699 4.23378 28.974 5.37255 29.0808L13.0276 29.7982C15.6787 30.0466 18.3026 29.1009 20.1855 27.2182L21.9475 25.4564C23.7456 23.6586 24.8001 21.2492 24.9009 18.7085L25.2217 10.6238C25.2577 9.71675 26.0034 9 26.9112 9C27.8659 9 28.6313 9.78996 28.6011 10.7442L28.3418 18.9446Z"
      fill="#f4f4f5"/>
  </g>
</svg>
